#N canvas 228 81 702 621 12;
#X obj 308 197 cos~;
#X obj 385 198 cos~;
#X obj 458 201 cos~;
#X obj 535 202 cos~;
#X obj 385 172 -~ 0.25;
#X obj 458 171 -~ 0.5;
#X obj 535 176 -~ 0.75;
#X obj 384 279 snapshot~;
#X obj 238 253 metro 50;
#X obj 218 227 bng 15 250 50 0 empty empty empty 17 7 0 10 -262144
-1 -1;
#X obj 289 369 hsl 128 15 -1 1 0 0 empty empty empty -2 -8 0 10 -262144
-1 -1 8802 1;
#X obj 298 284 snapshot~;
#X obj 293 345 hsl 128 15 -1 1 0 0 empty empty empty -2 -8 0 10 -262144
-1 -1 6350 1;
#X obj 541 284 snapshot~;
#X obj 286 421 hsl 128 15 -1 1 0 0 empty empty empty -2 -8 0 10 -262144
-1 -1 6350 1;
#X obj 462 285 snapshot~;
#X obj 281 391 hsl 128 15 -1 1 0 0 empty empty empty -2 -8 0 10 -262144
-1 -1 12207 1;
#X obj 535 239 clip~ 0 1;
#X obj 456 236 clip~ 0 1;
#X obj 388 241 clip~ 0 1;
#X obj 309 238 clip~ 0 1;
#X obj 310 130 +~;
#X obj 351 35 loadbang;
#X obj 351 64 \$1;
#X obj 347 90 *~ -0.25;
#X obj 476 40 inlet~;
#X obj 60 87 inlet~;
#X obj 171 465 *~;
#X obj 242 465 *~;
#X obj 312 465 *~;
#X obj 383 465 *~;
#X obj 168 508 outlet~;
#X obj 240 512 outlet~;
#X obj 310 511 outlet~;
#X obj 382 515 outlet~;
#X connect 0 0 20 0;
#X connect 1 0 19 0;
#X connect 2 0 18 0;
#X connect 3 0 17 0;
#X connect 4 0 1 0;
#X connect 5 0 2 0;
#X connect 6 0 3 0;
#X connect 7 0 10 0;
#X connect 8 0 11 0;
#X connect 8 0 15 0;
#X connect 8 0 13 0;
#X connect 8 0 7 0;
#X connect 9 0 8 0;
#X connect 11 0 12 0;
#X connect 13 0 14 0;
#X connect 15 0 16 0;
#X connect 17 0 13 0;
#X connect 17 0 30 0;
#X connect 18 0 15 0;
#X connect 18 0 29 0;
#X connect 19 0 7 0;
#X connect 19 0 28 0;
#X connect 20 0 11 0;
#X connect 20 0 27 0;
#X connect 21 0 0 0;
#X connect 21 0 4 0;
#X connect 21 0 5 0;
#X connect 21 0 6 0;
#X connect 22 0 23 0;
#X connect 23 0 24 0;
#X connect 24 0 21 1;
#X connect 25 0 21 0;
#X connect 26 0 27 1;
#X connect 26 0 28 1;
#X connect 26 0 29 1;
#X connect 26 0 30 1;
#X connect 27 0 31 0;
#X connect 28 0 32 0;
#X connect 29 0 33 0;
#X connect 30 0 34 0;
