#N canvas 0 0 1248 778 12;
#X declare -path ../heavylib;
#X obj 122 258 *~;
#X obj 419 262 *~;
#X obj 25 205 meter~;
#X obj 319 120 +~ 0;
#X obj 340 211 meter~;
#X obj 603 262 *~;
#X obj 524 211 meter~;
#X obj 829 274 *~;
#X obj 750 223 meter~;
#X obj 23 354 meter~;
#X obj 332 364 meter~;
#X obj 523 364 meter~;
#X obj 756 371 meter~;
#X obj 457 103 *~ 4;
#X obj 218 211 panner~ 1;
#X obj 438 223 panner~ 2;
#X obj 628 223 panner~ 3;
#X obj 875 213 panner~ 4;
#X obj 955 211 panner~ 0;
#N canvas 0 22 846 393 decode-4-to-2 0;
#X obj 102 95 inlet~;
#X obj 177 95 inlet~;
#X obj 275 94 inlet~;
#X obj 350 94 inlet~;
#X obj 85 349 outlet~;
#X obj 310 363 outlet~;
#X obj 95 202 *~ 1;
#X obj 404 219 *~ 1;
#X obj 144 204 *~ 0.7;
#X obj 231 218 *~ 0.3;
#X obj 232 162 *~ 0.3;
#X obj 314 166 *~ 0.7;
#X obj 150 288 lop~ 3000;
#X obj 281 288 lop~ 3000;
#X connect 0 0 6 0;
#X connect 1 0 8 0;
#X connect 1 0 9 0;
#X connect 2 0 10 0;
#X connect 2 0 11 0;
#X connect 3 0 7 0;
#X connect 6 0 4 0;
#X connect 7 0 5 0;
#X connect 8 0 12 0;
#X connect 9 0 13 0;
#X connect 10 0 12 0;
#X connect 11 0 13 0;
#X connect 12 0 4 0;
#X connect 13 0 5 0;
#X restore 325 671 pd decode-4-to-2;
#N canvas 0 22 450 300 decode-4-to-1 0;
#X obj 137 72 inlet~;
#X obj 192 68 inlet~;
#X obj 242 67 inlet~;
#X obj 292 66 inlet~;
#X obj 171 156 outlet~;
#X connect 0 0 4 0;
#X connect 1 0 4 0;
#X connect 2 0 4 0;
#X connect 3 0 4 0;
#X restore 318 715 pd decode-4-to-1;
#X obj 120 632 hsl 128 15 0.01 1 0 0 empty empty empty -2 -8 0 10 -262144
-1 -1 0 1;
#X obj 97 599 snapshot~;
#X obj 121 654 hsl 128 15 0.01 1 0 0 empty empty empty -2 -8 0 10 -262144
-1 -1 0 1;
#X obj 31 626 snapshot~;
#X obj 120 677 hsl 128 15 0.01 1 0 0 empty empty empty -2 -8 0 10 -262144
-1 -1 0 1;
#X obj 30 649 snapshot~;
#X obj 120 702 hsl 128 15 0.01 1 0 0 empty empty empty -2 -8 0 10 -262144
-1 -1 0 1;
#X obj 30 674 snapshot~;
#X obj 90 553 metro 50;
#X obj 924 260 +~;
#X obj 1107 63 bng 15 250 50 0 empty empty empty 17 7 0 10 -262144
-1 -1;
#X obj 388 61 hv.vline;
#X obj 317 88 *~;
#X obj 990 131 s sunday-clear-all-delay-lines;
#X obj 1047 344 s sunday-feedback-level;
#X floatatom 1090 319 5 0 0 0 - - -;
#X obj 1103 580 s sunday-wet-level;
#X floatatom 1106 541 5 0 0 0 - - -;
#X msg 1118 463 1;
#X obj 1089 210 bng 15 250 50 0 empty empty empty 17 7 0 10 -262144
-1 -1;
#X obj 1089 186 loadbang;
#X obj 272 36 phasor~ 249;
#X obj 97 513 tgl 15 0 empty empty empty 17 7 0 10 -262144 -1 -1 0
1;
#N canvas 0 22 1075 498 output-level 0;
#X obj 4 134 inlet~;
#X obj 22 164 *~ 1;
#X obj 54 130 r \$0-lev;
#X obj 325 47 s \$0-lev;
#X obj 14 203 outlet~;
#X obj 163 147 inlet~;
#X obj 181 177 *~ 1;
#X obj 213 143 r \$0-lev;
#X obj 173 216 outlet~;
#X obj 302 146 inlet~;
#X obj 320 176 *~ 1;
#X obj 352 142 r \$0-lev;
#X obj 312 215 outlet~;
#X obj 439 138 inlet~;
#X obj 457 168 *~ 1;
#X obj 489 134 r \$0-lev;
#X obj 449 207 outlet~;
#X obj 598 151 inlet~;
#X obj 648 147 r \$0-lev;
#X obj 622 267 outlet~;
#X obj 737 150 inlet~;
#X obj 787 146 r \$0-lev;
#X obj 747 219 outlet~;
#X obj 150 27 loadbang;
#X msg 140 58 1;
#X obj 403 301 lop~ 120;
#X obj 416 328 lop~ 120;
#X obj 478 293 lop~ 120;
#X obj 488 321 lop~ 120;
#X obj 416 359 lop~ 120;
#X obj 429 386 lop~ 120;
#X obj 498 352 lop~ 120;
#X obj 508 380 lop~ 120;
#X obj 616 181 *~ 1;
#X obj 755 180 *~ 1;
#X obj 600 240 *~ 1;
#X obj 106 103 mkctl 19;
#X connect 0 0 1 0;
#X connect 1 0 4 0;
#X connect 1 0 25 0;
#X connect 2 0 1 1;
#X connect 5 0 6 0;
#X connect 6 0 8 0;
#X connect 6 0 25 0;
#X connect 7 0 6 1;
#X connect 9 0 10 0;
#X connect 10 0 12 0;
#X connect 10 0 27 0;
#X connect 11 0 10 1;
#X connect 13 0 14 0;
#X connect 14 0 16 0;
#X connect 14 0 27 0;
#X connect 15 0 14 1;
#X connect 17 0 33 0;
#X connect 18 0 33 1;
#X connect 20 0 34 0;
#X connect 21 0 34 1;
#X connect 23 0 24 0;
#X connect 24 0 36 0;
#X connect 25 0 26 0;
#X connect 26 0 29 0;
#X connect 27 0 28 0;
#X connect 28 0 31 0;
#X connect 29 0 30 0;
#X connect 30 0 35 0;
#X connect 31 0 32 0;
#X connect 32 0 22 0;
#X connect 33 0 19 0;
#X connect 34 0 22 0;
#X connect 35 0 19 0;
#X connect 36 0 3 0;
#X coords 0 -1 1 1 150 30 1 100 100;
#X restore 512 726 pd output-level;
#X obj 510 757 dac~ 1 2 3 4 5 6;
#X obj 714 666 meter~;
#X obj 813 666 meter~;
#X obj 54 29 declare -path ../heavylib;
#N canvas 0 22 846 393 afourtofour 0;
#X obj 102 95 inlet~;
#X obj 177 95 inlet~;
#X obj 275 94 inlet~;
#X obj 350 94 inlet~;
#X obj 102 301 outlet~;
#X obj 307 292 outlet~;
#X obj 187 299 outlet~;
#X obj 392 290 outlet~;
#X obj 180 187 +~ 1e-08;
#X obj 291 201 +~ 1e-08;
#X obj 368 195 +~ 1e-08;
#X obj 99 191 +~ 1e-08;
#X connect 0 0 11 0;
#X connect 1 0 8 0;
#X connect 2 0 9 0;
#X connect 3 0 10 0;
#X connect 8 0 6 0;
#X connect 9 0 5 0;
#X connect 10 0 7 0;
#X connect 11 0 4 0;
#X restore 559 494 pd afourtofour;
#N canvas 115 112 965 632 stuff 0;
#X restore 352 560 pd stuff;
#X obj 484 572 1-to-4 0;
#X obj 566 576 1-to-4 1;
#X obj 644 577 1-to-4 2;
#X obj 749 582 1-to-4 3;
#N canvas 0 22 846 393 afourtofour 0;
#X obj 102 95 inlet~;
#X obj 177 95 inlet~;
#X obj 275 94 inlet~;
#X obj 350 94 inlet~;
#X obj 102 301 outlet~;
#X obj 307 292 outlet~;
#X obj 187 299 outlet~;
#X obj 392 290 outlet~;
#X obj 180 187 +~ 1e-08;
#X obj 291 201 +~ 1e-08;
#X obj 368 195 +~ 1e-08;
#X obj 100 192 +~ 1e-08;
#X connect 0 0 11 0;
#X connect 1 0 8 0;
#X connect 2 0 9 0;
#X connect 3 0 10 0;
#X connect 8 0 6 0;
#X connect 9 0 5 0;
#X connect 10 0 7 0;
#X connect 11 0 4 0;
#X restore 497 625 pd afourtofour;
#X obj 891 662 meter~;
#X obj 990 662 meter~;
#N canvas 0 22 846 393 afourtofour 0;
#X obj 102 95 inlet~;
#X obj 177 95 inlet~;
#X obj 275 94 inlet~;
#X obj 350 94 inlet~;
#X obj 102 301 outlet~;
#X obj 307 292 outlet~;
#X obj 187 299 outlet~;
#X obj 392 290 outlet~;
#X obj 180 187 +~ 1e-08;
#X obj 291 201 +~ 1e-08;
#X obj 368 195 +~ 1e-08;
#X obj 99 191 +~ 1e-08;
#X connect 0 0 11 0;
#X connect 1 0 8 0;
#X connect 2 0 9 0;
#X connect 3 0 10 0;
#X connect 8 0 6 0;
#X connect 9 0 5 0;
#X connect 10 0 7 0;
#X connect 11 0 4 0;
#X restore 557 537 pd afourtofour;
#X obj 226 75 adc~ 1;
#X obj 1078 640 adc~ 3 4 5 6 11 12;
#X obj 1118 756 dac~ 1 2 3 4 5 6;
#N canvas 0 22 1164 390 output-level 0;
#X obj 4 134 inlet~;
#X obj 22 164 *~ 1;
#X obj 14 203 outlet~;
#X obj 163 147 inlet~;
#X obj 181 177 *~ 1;
#X obj 173 216 outlet~;
#X obj 303 146 inlet~;
#X obj 320 176 *~ 1;
#X obj 312 215 outlet~;
#X obj 439 138 inlet~;
#X obj 457 168 *~ 1;
#X obj 449 207 outlet~;
#X obj 598 151 inlet~;
#X obj 616 181 *~ 1;
#X obj 608 220 outlet~;
#X obj 737 150 inlet~;
#X obj 755 180 *~ 1;
#X obj 747 219 outlet~;
#X obj 150 27 loadbang;
#X msg 140 58 1;
#X obj 54 130 r \$0-leva;
#X obj 214 143 r \$0-leva;
#X obj 352 142 r \$0-leva;
#X obj 489 134 r \$0-leva;
#X obj 648 147 r \$0-leva;
#X obj 787 146 r \$0-leva;
#X obj 325 47 s \$0-leva;
#X obj 107 102 mkctl 23;
#X connect 0 0 1 0;
#X connect 1 0 2 0;
#X connect 3 0 4 0;
#X connect 4 0 5 0;
#X connect 6 0 7 0;
#X connect 7 0 8 0;
#X connect 9 0 10 0;
#X connect 10 0 11 0;
#X connect 12 0 13 0;
#X connect 13 0 14 0;
#X connect 15 0 16 0;
#X connect 16 0 17 0;
#X connect 18 0 19 0;
#X connect 19 0 27 0;
#X connect 20 0 1 1;
#X connect 21 0 4 1;
#X connect 22 0 7 1;
#X connect 23 0 10 1;
#X connect 24 0 13 1;
#X connect 25 0 16 1;
#X connect 27 0 26 0;
#X coords 0 -1 1 1 150 30 1 100 100;
#X restore 1103 692 pd output-level;
#X text 1099 618 Marco;
#X obj 891 27 notein;
#X obj 989 69 select 3;
#X obj 841 105 noteout;
#X obj 818 42 loadbang;
#X msg 834 70 3 1;
#X obj 394 606 phasor~ 100;
#X obj 361 617 *~ 0.05;
#X obj 1081 254 mkctl 62;
#X msg 1049 229 1;
#X obj 601 319 sunday-track~ 2500;
#X obj 1105 495 mkctl 61;
#X floatatom 975 500 5 0 0 0 - - -;
#X msg 987 422 1;
#X obj 959 451 mkctl 57;
#X obj 972 539 s sunday-delay-send;
#X obj 403 319 sunday-track~ 2250;
#X obj 827 331 sunday-track~ 1750;
#X msg 393 23 0.3 \, 0 1000;
#X obj 1057 300 - 0.005;
#X obj 796 521 phasor~ 0.005;
#X obj 113 319 sunday-track~ 2000;
#X obj 471 59 phasor~ 0.05;
#X connect 0 0 2 0;
#X connect 0 0 84 0;
#X connect 1 0 4 0;
#X connect 1 0 79 0;
#X connect 3 0 0 0;
#X connect 3 0 1 0;
#X connect 3 0 5 0;
#X connect 3 0 7 0;
#X connect 5 0 6 0;
#X connect 5 0 73 0;
#X connect 7 0 8 0;
#X connect 7 0 80 0;
#X connect 13 0 14 0;
#X connect 13 0 17 0;
#X connect 13 0 15 0;
#X connect 13 0 16 0;
#X connect 13 0 18 0;
#X connect 14 0 0 1;
#X connect 14 0 22 0;
#X connect 15 0 1 1;
#X connect 15 0 24 0;
#X connect 16 0 5 1;
#X connect 16 0 26 0;
#X connect 17 0 30 0;
#X connect 18 0 30 1;
#X connect 22 0 21 0;
#X connect 24 0 23 0;
#X connect 26 0 25 0;
#X connect 28 0 27 0;
#X connect 29 0 22 0;
#X connect 29 0 24 0;
#X connect 29 0 28 0;
#X connect 29 0 26 0;
#X connect 30 0 28 0;
#X connect 30 0 7 1;
#X connect 31 0 34 0;
#X connect 32 0 33 1;
#X connect 33 0 84 0;
#X connect 38 0 37 0;
#X connect 39 0 74 0;
#X connect 40 0 39 0;
#X connect 40 0 72 0;
#X connect 40 0 76 0;
#X connect 41 0 40 0;
#X connect 42 0 33 0;
#X connect 43 0 29 0;
#X connect 44 0 45 0;
#X connect 44 1 45 1;
#X connect 44 2 45 2;
#X connect 44 3 45 3;
#X connect 44 4 45 4;
#X connect 44 5 45 5;
#X connect 49 0 58 0;
#X connect 49 1 58 1;
#X connect 49 2 58 2;
#X connect 49 3 58 3;
#X connect 51 0 55 0;
#X connect 51 1 55 1;
#X connect 51 2 55 2;
#X connect 51 3 55 3;
#X connect 52 0 55 0;
#X connect 52 1 55 1;
#X connect 52 2 55 2;
#X connect 52 3 55 3;
#X connect 53 0 55 0;
#X connect 53 1 55 1;
#X connect 53 2 55 2;
#X connect 53 3 55 3;
#X connect 54 0 55 0;
#X connect 54 1 55 1;
#X connect 54 2 55 2;
#X connect 54 3 55 3;
#X connect 55 0 19 0;
#X connect 55 0 46 0;
#X connect 55 0 44 0;
#X connect 55 0 20 0;
#X connect 55 1 19 1;
#X connect 55 1 47 0;
#X connect 55 1 44 1;
#X connect 55 1 20 1;
#X connect 55 2 19 2;
#X connect 55 2 56 0;
#X connect 55 2 44 2;
#X connect 55 2 20 2;
#X connect 55 3 19 3;
#X connect 55 3 57 0;
#X connect 55 3 44 3;
#X connect 55 3 20 3;
#X connect 58 0 51 0;
#X connect 58 1 52 0;
#X connect 58 2 53 0;
#X connect 58 3 54 0;
#X connect 59 0 3 0;
#X connect 60 0 62 0;
#X connect 60 1 62 1;
#X connect 60 2 62 2;
#X connect 60 3 62 3;
#X connect 60 4 62 4;
#X connect 60 5 62 5;
#X connect 62 0 61 0;
#X connect 62 1 61 1;
#X connect 62 2 61 2;
#X connect 62 3 61 3;
#X connect 62 4 61 4;
#X connect 62 5 61 5;
#X connect 64 0 65 0;
#X connect 65 0 34 0;
#X connect 67 0 68 0;
#X connect 68 0 66 0;
#X connect 69 0 70 0;
#X connect 71 0 82 0;
#X connect 72 0 71 0;
#X connect 73 0 11 0;
#X connect 73 0 49 2;
#X connect 74 0 38 0;
#X connect 75 0 78 0;
#X connect 76 0 77 0;
#X connect 77 0 75 0;
#X connect 79 0 10 0;
#X connect 79 0 49 1;
#X connect 80 0 12 0;
#X connect 80 0 49 3;
#X connect 81 0 32 0;
#X connect 82 0 35 0;
#X connect 82 0 36 0;
#X connect 83 0 51 1;
#X connect 83 0 52 1;
#X connect 83 0 53 1;
#X connect 83 0 54 1;
#X connect 84 0 49 0;
#X connect 84 0 9 0;
#X connect 85 0 13 0;
