#N canvas 0 0 1280 778 12;
#X declare -path ~/heavylib;
#X obj 54 29 declare -path ~/heavylib;
#X obj 112 319 sunday-track~;
#X obj 403 319 sunday-track~;
#X obj 601 319 sunday-track~;
#X obj 122 258 *~;
#X obj 419 262 *~;
#X obj 25 205 meter~;
#X obj 319 120 +~ 0;
#X obj 340 211 meter~;
#X obj 603 262 *~;
#X obj 524 211 meter~;
#X obj 827 331 sunday-track~;
#X obj 829 274 *~;
#X obj 750 223 meter~;
#X obj 23 354 meter~;
#X obj 332 364 meter~;
#X obj 523 364 meter~;
#X obj 756 371 meter~;
#X obj 457 103 *~ 4;
#X obj 218 211 panner~ 1;
#X obj 438 223 panner~ 2;
#X obj 628 223 panner~ 3;
#X obj 875 213 panner~ 4;
#X obj 955 211 panner~ 0;
#N canvas 0 22 846 393 decode-4-to-2 0;
#X obj 102 95 inlet~;
#X obj 177 95 inlet~;
#X obj 275 94 inlet~;
#X obj 350 94 inlet~;
#X obj 85 349 outlet~;
#X obj 310 363 outlet~;
#X obj 95 202 *~ 1;
#X obj 404 219 *~ 1;
#X obj 154 212 *~ 0.7;
#X obj 210 211 *~ 0.3;
#X obj 232 162 *~ 0.3;
#X obj 314 166 *~ 0.7;
#X obj 150 288 lop~ 3000;
#X obj 281 288 lop~ 3000;
#X connect 0 0 6 0;
#X connect 1 0 8 0;
#X connect 1 0 9 0;
#X connect 2 0 10 0;
#X connect 2 0 11 0;
#X connect 3 0 7 0;
#X connect 6 0 4 0;
#X connect 7 0 5 0;
#X connect 8 0 12 0;
#X connect 9 0 13 0;
#X connect 10 0 12 0;
#X connect 11 0 13 0;
#X connect 12 0 4 0;
#X connect 13 0 5 0;
#X restore 331 642 pd decode-4-to-2;
#N canvas 0 22 450 300 decode-4-to-1 0;
#X obj 137 72 inlet~;
#X obj 192 68 inlet~;
#X obj 242 67 inlet~;
#X obj 292 66 inlet~;
#X obj 171 156 outlet~;
#X connect 0 0 4 0;
#X connect 1 0 4 0;
#X connect 2 0 4 0;
#X connect 3 0 4 0;
#X restore 478 654 pd decode-4-to-1;
#N canvas 0 22 846 393 4-to-4 0;
#X obj 102 95 inlet~;
#X obj 177 95 inlet~;
#X obj 275 94 inlet~;
#X obj 350 94 inlet~;
#X obj 102 301 outlet~;
#X obj 307 292 outlet~;
#X obj 187 299 outlet~;
#X obj 392 290 outlet~;
#X connect 0 0 4 0;
#X connect 1 0 6 0;
#X connect 2 0 5 0;
#X connect 3 0 7 0;
#X restore 445 591 pd 4-to-4;
#X obj 120 632 hsl 128 15 0.01 1 0 0 empty empty empty -2 -8 0 10 -262144
-1 -1 0 1;
#X obj 97 599 snapshot~;
#X obj 121 654 hsl 128 15 0.01 1 0 0 empty empty empty -2 -8 0 10 -262144
-1 -1 0 1;
#X obj 31 626 snapshot~;
#X obj 120 677 hsl 128 15 0.01 1 0 0 empty empty empty -2 -8 0 10 -262144
-1 -1 0 1;
#X obj 30 649 snapshot~;
#X obj 120 702 hsl 128 15 0.01 1 0 0 empty empty empty -2 -8 0 10 -262144
-1 -1 0 1;
#X obj 30 674 snapshot~;
#X obj 90 553 metro 50;
#X obj 924 260 +~;
#X obj 1055 62 bng 15 250 50 0 empty empty empty 17 7 0 10 -262144
-1 -1;
#X obj 388 61 hv.vline;
#X msg 393 23 1 \, 0 1000;
#X obj 317 88 *~;
#X obj 1042 91 s sunday-clear-all-delay-lines;
#X obj 1048 317 s sunday-feedback-level;
#X obj 1052 263 hsl 128 15 0 2 0 0 empty empty empty -2 -8 0 10 -262144
-1 -1 6287 1;
#X floatatom 1064 288 5 0 0 0 - - -;
#X obj 1038 507 s sunday-wet-level;
#X obj 1044 442 hsl 128 15 0 2 0 0 empty empty empty -2 -8 0 10 -262144
-1 -1 6350 1;
#X floatatom 1040 469 5 0 0 0 - - -;
#X msg 1052 413 1;
#X msg 1048 229 0.99;
#X obj 1089 210 bng 15 250 50 0 empty empty empty 17 7 0 10 -262144
-1 -1;
#X obj 1089 186 loadbang;
#X obj 272 36 phasor~ 249;
#X obj 472 59 phasor~ 0.05;
#X obj 97 513 tgl 15 0 empty empty empty 17 7 0 10 -262144 -1 -1 0
1;
#N canvas 0 22 916 321 output-level 0;
#X obj 4 134 inlet~;
#X obj 22 164 *~ 1;
#X obj 54 130 r \$0-lev;
#X obj 325 47 s \$0-lev;
#X obj 106 103 hsl 60 15 0 1 0 0 empty empty empty -2 -8 0 10 -262144
-1 -1 400 1;
#X obj 14 203 outlet~;
#X obj 163 147 inlet~;
#X obj 181 177 *~ 1;
#X obj 213 143 r \$0-lev;
#X obj 173 216 outlet~;
#X obj 302 146 inlet~;
#X obj 320 176 *~ 1;
#X obj 352 142 r \$0-lev;
#X obj 312 215 outlet~;
#X obj 439 138 inlet~;
#X obj 457 168 *~ 1;
#X obj 489 134 r \$0-lev;
#X obj 449 207 outlet~;
#X obj 598 151 inlet~;
#X obj 616 181 *~ 1;
#X obj 648 147 r \$0-lev;
#X obj 608 220 outlet~;
#X obj 737 150 inlet~;
#X obj 755 180 *~ 1;
#X obj 787 146 r \$0-lev;
#X obj 747 219 outlet~;
#X obj 150 27 loadbang;
#X msg 140 58 1;
#X connect 0 0 1 0;
#X connect 1 0 5 0;
#X connect 2 0 1 1;
#X connect 4 0 3 0;
#X connect 6 0 7 0;
#X connect 7 0 9 0;
#X connect 8 0 7 1;
#X connect 10 0 11 0;
#X connect 11 0 13 0;
#X connect 12 0 11 1;
#X connect 14 0 15 0;
#X connect 15 0 17 0;
#X connect 16 0 15 1;
#X connect 18 0 19 0;
#X connect 19 0 21 0;
#X connect 20 0 19 1;
#X connect 22 0 23 0;
#X connect 23 0 25 0;
#X connect 24 0 23 1;
#X connect 26 0 27 0;
#X connect 27 0 4 0;
#X coords 0 -1 1 1 63 19 1 100 100;
#X restore 543 690 pd output-level;
#X obj 541 721 dac~ 1 2 3 4 5 6;
#X obj 745 589 meter~;
#X obj 978 596 meter~;
#X obj 230 92 adc~ 2;
#X connect 1 0 26 0;
#X connect 1 0 14 0;
#X connect 2 0 15 0;
#X connect 2 0 26 1;
#X connect 3 0 16 0;
#X connect 3 0 26 2;
#X connect 4 0 6 0;
#X connect 4 0 1 0;
#X connect 5 0 8 0;
#X connect 5 0 2 0;
#X connect 7 0 4 0;
#X connect 7 0 5 0;
#X connect 7 0 9 0;
#X connect 7 0 12 0;
#X connect 9 0 10 0;
#X connect 9 0 3 0;
#X connect 11 0 26 3;
#X connect 11 0 17 0;
#X connect 12 0 13 0;
#X connect 12 0 11 0;
#X connect 18 0 19 0;
#X connect 18 0 22 0;
#X connect 18 0 20 0;
#X connect 18 0 21 0;
#X connect 18 0 23 0;
#X connect 19 0 4 1;
#X connect 19 0 28 0;
#X connect 20 0 5 1;
#X connect 20 0 30 0;
#X connect 21 0 9 1;
#X connect 21 0 32 0;
#X connect 22 0 36 0;
#X connect 23 0 36 1;
#X connect 24 0 55 0;
#X connect 24 1 55 1;
#X connect 26 0 25 0;
#X connect 26 0 24 0;
#X connect 26 1 25 1;
#X connect 26 1 24 1;
#X connect 26 2 25 2;
#X connect 26 2 24 2;
#X connect 26 3 25 3;
#X connect 26 3 24 3;
#X connect 28 0 27 0;
#X connect 30 0 29 0;
#X connect 32 0 31 0;
#X connect 34 0 33 0;
#X connect 35 0 28 0;
#X connect 35 0 30 0;
#X connect 35 0 34 0;
#X connect 35 0 32 0;
#X connect 36 0 34 0;
#X connect 36 0 12 1;
#X connect 37 0 41 0;
#X connect 38 0 40 1;
#X connect 39 0 38 0;
#X connect 40 0 7 0;
#X connect 43 0 42 0;
#X connect 43 0 44 0;
#X connect 46 0 47 0;
#X connect 47 0 45 0;
#X connect 48 0 46 0;
#X connect 49 0 43 0;
#X connect 50 0 48 0;
#X connect 50 0 49 0;
#X connect 51 0 50 0;
#X connect 52 0 40 0;
#X connect 53 0 18 0;
#X connect 54 0 35 0;
#X connect 55 0 56 0;
#X connect 55 0 57 0;
#X connect 55 1 56 1;
#X connect 55 1 58 0;
#X connect 55 2 56 2;
#X connect 55 3 56 3;
#X connect 55 4 56 4;
#X connect 55 5 56 5;
#X connect 59 0 7 0;
