#N canvas 0 22 703 439 12;
#X obj 63 60 inlet~;
#X obj 70 201 *~;
#X obj 70 271 outlet~;
#X obj 206 166 panner~ 2;
#X obj 297 170 panner~ 3;
#X obj 384 168 panner~ 4;
#X obj 458 166 panner~ 0;
#X obj 179 229 *~;
#X obj 179 299 outlet~;
#X obj 286 229 *~;
#X obj 286 299 outlet~;
#X obj 424 199 +~;
#X obj 389 238 *~;
#X obj 389 308 outlet~;
#X obj 113 163 panner~ 1;
#X obj 337 99 inlet~;
#X connect 0 0 1 0;
#X connect 0 0 7 0;
#X connect 0 0 9 0;
#X connect 0 0 12 0;
#X connect 1 0 2 0;
#X connect 3 0 7 1;
#X connect 4 0 9 1;
#X connect 5 0 11 0;
#X connect 6 0 11 0;
#X connect 7 0 8 0;
#X connect 9 0 10 0;
#X connect 11 0 12 1;
#X connect 12 0 13 0;
#X connect 14 0 1 1;
#X connect 15 0 3 0;
#X connect 15 0 5 0;
#X connect 15 0 6 0;
#X connect 15 0 4 0;
#X connect 15 0 14 0;
