#N canvas 28 55 559 466 12;
#X obj 254 64 ctlin;
#X obj 251 92 swap;
#X obj 253 211 / 127;
#X obj 259 289 line;
#X msg 258 255 \$1 50;
#X obj 253 137 pack f f;
#X obj 252 185 route \$1;
#X obj 252 335 outlet;
#X obj 164 65 hsl 70 15 0 1 0 0 empty empty empty -2 -8 0 10 -262144
-1 -1 6900 1;
#X obj 155 27 inlet;
#X msg 175 235 set \$1;
#X floatatom 319 306 5 0 0 0 - - -;
#X connect 0 0 1 0;
#X connect 0 1 1 1;
#X connect 1 0 5 0;
#X connect 1 1 5 1;
#X connect 2 0 4 0;
#X connect 2 0 10 0;
#X connect 3 0 7 0;
#X connect 3 0 11 0;
#X connect 4 0 3 0;
#X connect 5 0 6 0;
#X connect 6 0 2 0;
#X connect 8 0 4 0;
#X connect 9 0 8 0;
#X connect 10 0 8 0;
#X coords 0 -1 1 1 140 25 1 100 60;
