#N canvas 653 41 627 656 12;
#X obj 91 44 inlet~;
#X obj 75 634 outlet~;
#X obj 118 297 -~ \$1;
#X obj 40 447 sig~ 1;
#X obj 56 546 -~;
#X obj 135 359 clip~ -1 1;
#X obj 133 392 abs~;
#X obj 171 500 cos~;
#X obj 237 545 snapshot~;
#X floatatom 235 579 0 0 0 0 - - -;
#X obj 236 515 metro 59;
#X obj 248 492 bng 15 250 50 0 empty empty empty 17 7 0 10 -262144
-1 -1;
#X obj 168 441 *~ 0.25;
#X obj 169 468 +~ 0.75;
#X connect 0 0 2 0;
#X connect 2 0 5 0;
#X connect 3 0 4 0;
#X connect 4 0 1 0;
#X connect 5 0 6 0;
#X connect 6 0 12 0;
#X connect 7 0 8 0;
#X connect 7 0 4 1;
#X connect 8 0 9 0;
#X connect 10 0 8 0;
#X connect 11 0 10 0;
#X connect 12 0 13 0;
#X connect 13 0 7 0;
