#N canvas 203 64 691 697 12;
#X obj 98 72 inlet~;
#X obj 45 592 outlet~;
#X msg 340 203 clear;
#X obj 307 489 lop~ 10;
#X obj 379 162 r sunday-clear-all-delay-lines;
#X obj 333 438 r sunday-feedback-level;
#X obj 151 468 r sunday-wet-level;
#X obj 100 121 hv.flanger 20;
#X obj 139 198 lop~ 8000;
#X obj 115 511 *~ 1;
#X obj 315 462 sig~ 0.99;
#X obj 291 531 *~;
#X obj 202 271 delwrite~ del-\$0 \$1;
#X obj 193 149 r sunday-delay-send;
#X obj 133 170 *~;
#X obj 292 580 lop~ 8000;
#X obj 273 619 hip~ 400;
#X obj 395 547 loadbang;
#X obj 396 576 \$1;
#X floatatom 477 627 5 0 0 0 - - -;
#X floatatom 404 663 5 0 0 0 - - -;
#X obj 147 356 delread~ del-\$0 \$1;
#X obj 401 638 - 1700;
#X obj 396 599 + 8000;
#X connect 0 0 7 0;
#X connect 2 0 12 0;
#X connect 3 0 11 1;
#X connect 4 0 2 0;
#X connect 5 0 10 0;
#X connect 6 0 9 1;
#X connect 7 0 1 0;
#X connect 7 0 14 0;
#X connect 8 0 12 0;
#X connect 9 0 1 0;
#X connect 10 0 3 0;
#X connect 11 0 15 0;
#X connect 13 0 14 1;
#X connect 14 0 8 0;
#X connect 15 0 16 0;
#X connect 16 0 12 0;
#X connect 17 0 18 0;
#X connect 18 0 22 0;
#X connect 18 0 23 0;
#X connect 21 0 9 0;
#X connect 21 0 11 0;
#X connect 22 0 16 1;
#X connect 22 0 20 0;
#X connect 23 0 15 1;
#X connect 23 0 19 0;
