#N canvas 0 22 691 697 12;
#X obj 98 72 inlet~;
#X obj 45 592 outlet~;
#X obj 145 269 delwrite~ del-\$0 3000;
#X msg 340 203 clear;
#X obj 307 489 lop~ 10;
#X obj 315 462 sig~;
#X obj 291 531 *~, f 4;
#X obj 379 162 r sunday-clear-all-delay-lines;
#X obj 333 438 r sunday-feedback-level;
#X obj 115 511 *~;
#X obj 151 468 r sunday-wet-level;
#X obj 194 398 delread~ del-\$0 2000;
#X obj 109 132 hv.flanger 20;
#X connect 0 0 12 0;
#X connect 3 0 2 0;
#X connect 4 0 6 1;
#X connect 5 0 4 0;
#X connect 6 0 2 0;
#X connect 7 0 3 0;
#X connect 8 0 5 0;
#X connect 9 0 1 0;
#X connect 10 0 9 1;
#X connect 11 0 6 0;
#X connect 11 0 9 0;
#X connect 12 0 1 0;
#X connect 12 0 2 0;
